# Blender 3.3.1
# www.blender.org
mtllib water.mtl
o Object_2
v -0.285901 -0.255249 1.882782
v -2.357932 -1.491126 0.030985
v -0.076862 2.574618 0.025817
v 0.187419 -2.789942 -1.146173
v -0.787340 -0.712676 -1.830313
v 0.760242 -2.960035 -0.098366
v -1.904999 -1.259366 -0.553020
v -1.038459 -1.245013 1.726215
v 0.921036 -0.646167 1.481928
v -0.025525 2.481540 -0.011430
v 0.012803 2.804617 0.020694
v 1.609758 -0.675916 -1.231234
v -0.008137 2.836230 0.004107
v 1.398700 -1.996068 1.617253
v 1.743494 -0.691499 -0.309076
v -0.027936 -0.871853 -1.918211
v 0.006437 2.489380 0.004940
vn -0.9482 -0.3042 0.0914
vn -0.1975 0.1740 0.9647
vn -0.5059 0.1128 0.8552
vn -0.7818 -0.1773 -0.5978
vn -0.3567 0.0779 -0.9310
vn 0.0916 -0.8882 -0.4502
vn 0.5710 -0.4839 0.6632
vn 0.0136 0.9830 0.1831
vn 0.9300 0.2393 0.2791
vn 0.5049 0.2339 -0.8309
vn -0.3223 0.9456 0.0440
vn -0.0134 0.0597 0.9981
vn -0.0069 -0.2933 0.9560
vn 0.8337 0.0702 -0.5477
vn -0.5612 -0.0310 -0.8271
vn -0.9787 -0.0444 0.2003
vn -0.8584 -0.4948 0.1354
vt 0.000000 1.000000
vt 0.000000 1.000000
vt 0.000000 1.000000
vt 0.000000 1.000000
vt 0.000000 1.000000
vt 0.000000 1.000000
vt 0.000000 1.000000
vt 0.000000 1.000000
vt 0.000000 1.000000
vt 0.000000 1.000000
vt 0.000000 1.000000
vt 0.000000 1.000000
vt 0.000000 1.000000
vt 0.000000 1.000000
vt 0.000000 1.000000
vt 0.000000 1.000000
vt 0.000000 1.000000
s 1
usemtl None
f 2/2/1 1/1/2 3/3/3
f 1/1/2 11/11/4 3/3/3
f 2/2/1 5/5/5 4/4/6
f 14/14/7 2/2/1 4/4/6
f 14/14/7 1/1/2 2/2/1
f 13/13/8 5/5/5 2/2/1
f 3/3/3 13/13/8 2/2/1
f 7/7/9 8/8/10 6/6/11
f 16/16/12 7/7/9 6/6/11
f 7/7/9 3/3/3 8/8/10
f 16/16/12 10/10/13 7/7/9
f 7/7/9 10/10/13 3/3/3
f 14/14/7 11/11/4 1/1/2
f 11/11/4 14/14/7 13/13/8
f 13/13/8 14/14/7 12/12/14
f 13/13/8 12/12/14 5/5/5
f 9/9/15 15/15/16 6/6/11
f 16/16/12 6/6/11 15/15/16
f 6/6/11 8/8/10 9/9/15
f 14/14/7 4/4/6 12/12/14
f 4/4/6 5/5/5 12/12/14
f 3/3/3 11/11/4 17/17/17
f 17/17/17 13/13/8 10/10/13
f 10/10/13 13/13/8 3/3/3
f 13/13/8 17/17/17 11/11/4
f 17/17/17 16/16/12 15/15/16
f 9/9/15 8/8/10 3/3/3
f 17/17/17 15/15/16 9/9/15
f 9/9/15 3/3/3 17/17/17
f 17/17/17 10/10/13 16/16/12
